<svg width="128" height="92" viewBox="0 0 128 92" fill="none" xmlns="http://www.w3.org/2000/svg">
<path fill-rule="evenodd" clip-rule="evenodd" d="M114.036 0C117.74 0 121.291 1.45392 123.91 4.04193C126.529 6.62993 128 10.14 128 13.8V78.2C128 81.86 126.529 85.3701 123.91 87.9581C121.291 90.5461 117.74 92 114.036 92H13.9636C10.2603 92 6.70854 90.5461 4.08985 87.9581C1.47116 85.3701 0 81.86 0 78.2V13.8C0 10.14 1.47116 6.62993 4.08985 4.04193C6.70854 1.45392 10.2603 0 13.9636 0H114.036ZM23.2727 57.5C21.7297 57.5 20.2498 58.1058 19.1587 59.1841C18.0675 60.2625 17.4545 61.725 17.4545 63.25C17.4545 64.775 18.0675 66.2375 19.1587 67.3159C20.2498 68.3942 21.7297 69 23.2727 69H52.3636C53.9067 69 55.3866 68.3942 56.4777 67.3159C57.5688 66.2375 58.1818 64.775 58.1818 63.25C58.1818 61.725 57.5688 60.2625 56.4777 59.1841C55.3866 58.1058 53.9067 57.5 52.3636 57.5H23.2727ZM92.6371 32.1655C91.2815 26.818 83.7935 26.657 82.0596 31.6652L81.9142 32.1655L80.1862 38.9908L73.28 40.6985C67.6945 42.0785 67.6945 49.9157 73.28 51.2957L80.1862 53.0035L81.9142 59.8287C83.3106 65.3487 91.2407 65.3487 92.6371 59.8287L94.3651 53.0035L101.271 51.2957C106.851 49.9157 106.857 42.0785 101.271 40.6985L94.3651 38.9908L92.6371 32.1655ZM23.2727 40.25C21.7297 40.25 20.2498 40.8558 19.1587 41.9341C18.0675 43.0125 17.4545 44.475 17.4545 46C17.4545 47.525 18.0675 48.9875 19.1587 50.0659C20.2498 51.1442 21.7297 51.75 23.2727 51.75H52.3636C53.9067 51.75 55.3866 51.1442 56.4777 50.0659C57.5688 48.9875 58.1818 47.525 58.1818 46C58.1818 44.475 57.5688 43.0125 56.4777 41.9341C55.3866 40.8558 53.9067 40.25 52.3636 40.25H23.2727ZM23.2727 23C21.7297 23 20.2498 23.6058 19.1587 24.6841C18.0675 25.7625 17.4545 27.225 17.4545 28.75C17.4545 30.275 18.0675 31.7375 19.1587 32.8159C20.2498 33.8942 21.7297 34.5 23.2727 34.5H52.3636C53.9067 34.5 55.3866 33.8942 56.4777 32.8159C57.5688 31.7375 58.1818 30.275 58.1818 28.75C58.1818 27.225 57.5688 25.7625 56.4777 24.6841C55.3866 23.6058 53.9067 23 52.3636 23H23.2727Z" fill="url(#paint0_linear_236_567)"/>
<defs>
<linearGradient id="paint0_linear_236_567" x1="137.143" y1="2.1263e-06" x2="59.6793" y2="124.356" gradientUnits="userSpaceOnUse">
<stop stop-color="#7AB2FF"/>
<stop offset="0.5" stop-color="#EBF3FE"/>
<stop offset="1" stop-color="#FDCCFB"/>
</linearGradient>
</defs>
</svg>
