<svg width="128" height="128" viewBox="0 0 128 128" fill="none" xmlns="http://www.w3.org/2000/svg">
<path fill-rule="evenodd" clip-rule="evenodd" d="M89.7943 5.78653C91.4718 -1.8966 102.389 -1.94255 104.149 5.73139L104.231 6.099L104.387 6.80666C106.404 15.3996 113.334 21.9523 122.005 23.4688C129.998 24.8657 129.998 36.372 122.005 37.7689C117.743 38.5176 113.796 40.5098 110.657 43.4964C107.518 46.483 105.328 50.3313 104.36 54.5597L104.149 55.4971C102.407 63.171 91.481 63.1251 89.8035 55.4328L89.6293 54.6332C88.704 50.386 86.5373 46.5116 83.4059 43.5046C80.2744 40.4975 76.3202 38.4943 72.0481 37.7505C64.0733 36.3628 64.0733 24.8749 72.0481 23.4779C76.3032 22.7356 80.2427 20.7437 83.3676 17.7546C86.4925 14.7655 88.6623 10.9137 89.6018 6.68719L89.7302 6.08981L89.7943 5.78653ZM70.334 47.5842C53.1378 44.5882 51.5153 21.8972 65.4575 15.1699C64.2108 12.9213 62.8939 10.7126 61.5067 8.54364C60.0558 8.49425 58.6036 8.49425 57.1527 8.54364C46.7779 24.8045 40.3918 43.2978 38.5173 62.5093H80.1604C79.8854 59.7522 79.5188 57.0135 79.0604 54.2932C78.252 52.5567 77.0388 51.0406 75.5232 49.873C74.0076 48.7053 72.2341 47.9203 70.3523 47.5842M0.0183329 62.5093C1.16767 50.6532 5.82082 39.4109 13.3818 30.2223C20.9428 21.0338 31.0674 14.3173 42.4589 10.9331C33.8839 26.9014 28.6264 44.4468 27.0043 62.5093H0M0.0824979 73.9973H26.9951C28.6201 92.0605 33.8807 109.606 42.4589 125.573C31.0657 122.191 20.9391 115.475 13.3764 106.286C5.81367 97.0977 1.15918 85.8546 0.00916643 73.9973H0.0824979ZM38.499 73.9973C40.3763 93.2096 46.7655 111.703 57.1435 127.963C58.5944 128.012 60.0466 128.012 61.4976 127.963C71.8756 111.703 78.2648 93.2096 80.1421 73.9973H38.499ZM118.641 73.9973C117.492 85.8534 112.839 97.0957 105.278 106.284C97.7166 115.473 87.592 122.189 76.2005 125.573C84.7724 109.605 90.0267 92.0592 91.646 73.9973H118.641Z" fill="url(#paint0_linear_236_565)"/>
<defs>
<linearGradient id="paint0_linear_236_565" x1="137.143" y1="2.95834e-06" x2="18.2857" y2="137.143" gradientUnits="userSpaceOnUse">
<stop stop-color="#7AB2FF"/>
<stop offset="0.5" stop-color="#EBF3FE"/>
<stop offset="1" stop-color="#FDCCFB"/>
</linearGradient>
</defs>
</svg>
